<svg width="236" height="65" viewBox="0 0 236 65" fill="none" xmlns="http://www.w3.org/2000/svg">
<path d="M84.6972 17.1189H89.442V50.2517C89.442 52.155 89.1136 53.8036 88.4568 55.1976C87.8135 56.5915 86.835 57.6705 85.5215 58.4344C84.2214 59.1984 82.5795 59.5804 80.5958 59.5804C80.435 59.5804 80.2741 59.5804 80.1133 59.5804C79.9525 59.5804 79.7916 59.5804 79.6308 59.5804V55.1573C79.7916 55.1573 79.9391 55.1573 80.0731 55.1573C80.2071 55.1573 80.3546 55.1573 80.5154 55.1573C81.963 55.1573 83.0218 54.7284 83.692 53.8706C84.3621 53.0262 84.6972 51.8199 84.6972 50.2517V17.1189ZM87.0294 11.972C86.1046 11.972 85.3071 11.657 84.6369 11.0271C83.9801 10.3971 83.6518 9.63986 83.6518 8.75524C83.6518 7.87063 83.9801 7.11334 84.6369 6.48339C85.3071 5.85344 86.1046 5.53846 87.0294 5.53846C87.9542 5.53846 88.745 5.85344 89.4018 6.48339C90.0719 7.11334 90.407 7.87063 90.407 8.75524C90.407 9.63986 90.0719 10.3971 89.4018 11.0271C88.745 11.657 87.9542 11.972 87.0294 11.972ZM110.678 48.6434C107.89 48.6434 105.444 47.9799 103.339 46.653C101.249 45.326 99.6134 43.4697 98.4339 41.0839C97.2678 38.6981 96.6848 35.9103 96.6848 32.7203C96.6848 29.5035 97.2678 26.6955 98.4339 24.2963C99.6134 21.8971 101.249 20.0341 103.339 18.7072C105.444 17.3802 107.89 16.7168 110.678 16.7168C113.466 16.7168 115.905 17.3802 117.996 18.7072C120.1 20.0341 121.735 21.8971 122.902 24.2963C124.081 26.6955 124.671 29.5035 124.671 32.7203C124.671 35.9103 124.081 38.6981 122.902 41.0839C121.735 43.4697 120.1 45.326 117.996 46.653C115.905 47.9799 113.466 48.6434 110.678 48.6434ZM110.678 44.3811C112.795 44.3811 114.538 43.8383 115.905 42.7526C117.272 41.667 118.284 40.2395 118.941 38.4703C119.598 36.701 119.926 34.7844 119.926 32.7203C119.926 30.6562 119.598 28.7328 118.941 26.9502C118.284 25.1675 117.272 23.7267 115.905 22.6276C114.538 21.5286 112.795 20.979 110.678 20.979C108.56 20.979 106.818 21.5286 105.45 22.6276C104.083 23.7267 103.071 25.1675 102.415 26.9502C101.758 28.7328 101.43 30.6562 101.43 32.7203C101.43 34.7844 101.758 36.701 102.415 38.4703C103.071 40.2395 104.083 41.667 105.45 42.7526C106.818 43.8383 108.56 44.3811 110.678 44.3811ZM132.557 48V6.82517H137.302V22.0245H137.704C138.052 21.4883 138.535 20.8048 139.151 19.9738C139.781 19.1294 140.679 18.3788 141.845 17.722C143.025 17.0519 144.62 16.7168 146.63 16.7168C149.231 16.7168 151.523 17.3668 153.506 18.667C155.49 19.9671 157.038 21.81 158.15 24.1958C159.263 26.5816 159.819 29.3963 159.819 32.6399C159.819 35.9103 159.263 38.745 158.15 41.1442C157.038 43.53 155.497 45.3797 153.526 46.6932C151.556 47.9933 149.284 48.6434 146.711 48.6434C144.727 48.6434 143.139 48.315 141.946 47.6582C140.753 46.9881 139.835 46.2308 139.192 45.3864C138.548 44.5286 138.052 43.8182 137.704 43.2552H137.141V48H132.557ZM137.221 32.5594C137.221 34.8916 137.563 36.949 138.247 38.7316C138.93 40.5009 139.929 41.8881 141.242 42.8934C142.556 43.8852 144.164 44.3811 146.067 44.3811C148.051 44.3811 149.706 43.8584 151.033 42.8129C152.374 41.7541 153.379 40.3333 154.049 38.5507C154.733 36.7547 155.074 34.7576 155.074 32.5594C155.074 30.3881 154.739 28.4312 154.069 26.6888C153.412 24.933 152.414 23.5457 151.074 22.5271C149.747 21.495 148.078 20.979 146.067 20.979C144.137 20.979 142.516 21.4682 141.202 22.4467C139.889 23.4117 138.897 24.7654 138.227 26.5079C137.556 28.2369 137.221 30.2541 137.221 32.5594ZM167.077 48V17.1189H171.822V48H167.077ZM169.49 11.972C168.565 11.972 167.767 11.657 167.097 11.0271C166.44 10.3971 166.112 9.63986 166.112 8.75524C166.112 7.87063 166.44 7.11334 167.097 6.48339C167.767 5.85344 168.565 5.53846 169.49 5.53846C170.414 5.53846 171.205 5.85344 171.862 6.48339C172.532 7.11334 172.867 7.87063 172.867 8.75524C172.867 9.63986 172.532 10.3971 171.862 11.0271C171.205 11.657 170.414 11.972 169.49 11.972ZM199.974 35.3741V17.1189H204.718V48H199.974V42.7727H199.652C198.928 44.3409 197.802 45.6745 196.274 46.7736C194.746 47.8593 192.816 48.4021 190.484 48.4021C188.554 48.4021 186.838 47.9799 185.337 47.1355C183.836 46.2777 182.657 44.991 181.799 43.2753C180.941 41.5463 180.512 39.3683 180.512 36.7413V17.1189H185.257V36.4196C185.257 38.6713 185.887 40.4674 187.147 41.8077C188.42 43.148 190.042 43.8182 192.012 43.8182C193.192 43.8182 194.391 43.5166 195.611 42.9135C196.844 42.3103 197.876 41.3855 198.707 40.139C199.551 38.8925 199.974 37.3042 199.974 35.3741ZM235.283 24.035L231.021 25.2413C230.753 24.5309 230.357 23.8406 229.834 23.1705C229.325 22.4869 228.628 21.9239 227.744 21.4816C226.859 21.0393 225.726 20.8182 224.346 20.8182C222.456 20.8182 220.881 21.2538 219.621 22.125C218.375 22.9828 217.751 24.0752 217.751 25.4021C217.751 26.5816 218.18 27.5131 219.038 28.1967C219.896 28.8802 221.236 29.4499 223.059 29.9056L227.643 31.0315C230.404 31.7016 232.461 32.727 233.815 34.1075C235.169 35.4746 235.846 37.2372 235.846 39.3951C235.846 41.1643 235.336 42.7459 234.318 44.1399C233.313 45.5338 231.905 46.6329 230.096 47.4371C228.286 48.2413 226.182 48.6434 223.783 48.6434C220.633 48.6434 218.026 47.9598 215.962 46.5927C213.898 45.2255 212.591 43.2284 212.042 40.6014L216.545 39.4755C216.974 41.1375 217.785 42.384 218.978 43.215C220.184 44.046 221.759 44.4615 223.702 44.4615C225.914 44.4615 227.67 43.9924 228.97 43.0542C230.283 42.1026 230.94 40.9633 230.94 39.6364C230.94 38.5641 230.565 37.6661 229.814 36.9423C229.064 36.2051 227.911 35.6556 226.356 35.2937L221.209 34.0874C218.381 33.4172 216.304 32.3785 214.977 30.9712C213.663 29.5504 213.007 27.7745 213.007 25.6434C213.007 23.9009 213.496 22.3596 214.474 21.0192C215.466 19.6789 216.813 18.6267 218.515 17.8628C220.231 17.0988 222.174 16.7168 224.346 16.7168C227.402 16.7168 229.801 17.3869 231.543 18.7273C233.299 20.0676 234.546 21.8368 235.283 24.035Z" fill="#0B2545"/>
<rect width="67" height="65" rx="7.95866" fill="#0B2545"/>
<path d="M11.8445 17.1189H20.4092V49.528C20.4092 51.9138 19.9401 53.8438 19.0019 55.3182C18.0636 56.7925 16.7166 57.8715 14.9608 58.5551C13.2183 59.2386 11.1341 59.5804 8.70815 59.5804C8.41328 59.5804 8.13181 59.5737 7.86374 59.5603C7.58228 59.5603 7.2874 59.5536 6.97913 59.5402V52.8453C7.20698 52.8587 7.40803 52.8654 7.58228 52.8654C7.74312 52.8788 7.91736 52.8855 8.105 52.8855C9.48554 52.8855 10.4506 52.5906 11.0001 52.0009C11.563 51.4245 11.8445 50.5533 11.8445 49.3872V17.1189ZM16.1068 13.1381C14.8468 13.1381 13.7612 12.7159 12.8498 11.8715C11.9383 11.0137 11.4826 9.98834 11.4826 8.79545C11.4826 7.61596 11.9383 6.60402 12.8498 5.75961C13.7612 4.9018 14.8468 4.4729 16.1068 4.4729C17.3935 4.4729 18.4858 4.9018 19.3839 5.75961C20.2953 6.60402 20.751 7.61596 20.751 8.79545C20.751 9.98834 20.2953 11.0137 19.3839 11.8715C18.4858 12.7159 17.3935 13.1381 16.1068 13.1381ZM41.2228 48.6031C38.0998 48.6031 35.3991 47.9397 33.1205 46.6128C30.8554 45.2724 29.1062 43.4094 27.8731 41.0236C26.64 38.6244 26.0235 35.8432 26.0235 32.6801C26.0235 29.4901 26.64 26.7022 27.8731 24.3164C29.1062 21.9172 30.8554 20.0542 33.1205 18.7273C35.3991 17.3869 38.0998 16.7168 41.2228 16.7168C44.3458 16.7168 47.0398 17.3869 49.305 18.7273C51.5835 20.0542 53.3393 21.9172 54.5724 24.3164C55.8055 26.7022 56.4221 29.4901 56.4221 32.6801C56.4221 35.8432 55.8055 38.6244 54.5724 41.0236C53.3393 43.4094 51.5835 45.2724 49.305 46.6128C47.0398 47.9397 44.3458 48.6031 41.2228 48.6031ZM41.263 41.9685C42.6837 41.9685 43.8699 41.5664 44.8216 40.7622C45.7732 39.9446 46.4903 38.8322 46.9728 37.4248C47.4687 36.0175 47.7167 34.4158 47.7167 32.6198C47.7167 30.8237 47.4687 29.222 46.9728 27.8147C46.4903 26.4073 45.7732 25.2949 44.8216 24.4773C43.8699 23.6597 42.6837 23.2509 41.263 23.2509C39.8289 23.2509 38.6226 23.6597 37.6441 24.4773C36.6791 25.2949 35.9486 26.4073 35.4527 27.8147C34.9702 29.222 34.7289 30.8237 34.7289 32.6198C34.7289 34.4158 34.9702 36.0175 35.4527 37.4248C35.9486 38.8322 36.6791 39.9446 37.6441 40.7622C38.6226 41.5664 39.8289 41.9685 41.263 41.9685Z" fill="white"/>
</svg>
